# xmcd
#
# Track frame offsets: 
#        150
#        12914
#        25224
#        38859
#        53156
#        65141
#        93087
#        104624
#        118187
#        130651
#        143518
#        156897
#        168091
#        179455
#        192429
#        207026
#        219684
#        232318
#        245985
#        257531
#
# Disc length: 3652 seconds
#
# Revision: 0
# Processed by: cddbd v1.5.2PL0 Copyright (c) Steve Scherf et al.
# Submitted via: ExactAudioCopyFreeDBPlugin 1.0
#
DISCID=240e4214
DTITLE=B.B. King - The Rough Guide To B.B. King Birth Of A Legend (Reb
DTITLE=orn and Remastered Disc 1) 
DYEAR=2012
DGENRE=Blues
TTITLE0=Every Day I Have The Blues
TTITLE1=Sugar Mama
TTITLE2=Three O'Clock Blues
TTITLE3=Whole Lotta Love
TTITLE4=You've Been An Angel
TTITLE5=Sweet Sixteen Parts 1 and 2
TTITLE6=Take A Swing With Me
TTITLE7=Partin' Time
TTITLE8=Gotta Find My Baby
TTITLE9=Why Do Everything Happen To Me
TTITLE10=Woke Up This Morning
TTITLE11=Days Of Old
TTITLE12=Mean Ole Frisco
TTITLE13=The Woman I Love
TTITLE14=I've Got A Right To Love My Baby
TTITLE15=Please Love Me
TTITLE16=Ten Long Years
TTITLE17=You Upset Me Baby
TTITLE18=Please Accept My Love
TTITLE19=Walkin' Dr. Bill AKA Gotta Find My Baby
EXTD=
EXTT0=
EXTT1=
EXTT2=
EXTT3=
EXTT4=
EXTT5=
EXTT6=
EXTT7=
EXTT8=
EXTT9=
EXTT10=
EXTT11=
EXTT12=
EXTT13=
EXTT14=
EXTT15=
EXTT16=
EXTT17=
EXTT18=
EXTT19=
PLAYORDER=
